<?xml version="1.0" encoding="UTF-8"?>
<svg version="1.1" xmlns="http://www.w3.org/2000/svg" width="489" height="515">
<path d="M0 0 C161.37 0 322.74 0 489 0 C489 169.95 489 339.9 489 515 C327.63 515 166.26 515 0 515 C0 345.05 0 175.1 0 0 Z " fill="#FDFDFD" transform="translate(0,0)"/>
<path d="M0 0 C161.37 0 322.74 0 489 0 C489 169.95 489 339.9 489 515 C327.63 515 166.26 515 0 515 C0 345.05 0 175.1 0 0 Z M78.94370282 21.2814244 C75.53643552 24.29404875 71.78811464 26.83781882 68.0625 29.4375 C61.05251433 34.49253663 54.08903941 39.60851388 47.13867188 44.74511719 C40.71966416 49.4837147 34.26139815 54.16616591 27.78515625 58.82617188 C26.42151883 59.80753962 25.0626534 60.79559228 23.70996094 61.79199219 C22 63 22 63 19.51953125 64.33984375 C16.90811567 67.19293275 17.51101544 70.71867186 17.625 74.375 C17.64006592 75.28000244 17.65513184 76.18500488 17.6706543 77.11743164 C19.3268759 150.67878306 26.17121509 227.73223805 49 298 C49.2092511 298.64517578 49.4185022 299.29035156 49.63409424 299.95507812 C55.84576548 319.05863381 62.50613498 337.77258797 71 356 C71.83098283 357.82280105 72.66170988 359.64571872 73.4921875 361.46875 C83.9601856 384.19360713 97.20494284 405.57577551 113 425 C113.42651855 425.52948242 113.85303711 426.05896484 114.29248047 426.60449219 C126.62428662 441.80510881 140.49365677 456.28337974 156.36132812 467.80566406 C158.00320262 469.00233421 159.61916788 470.22858707 161.234375 471.4609375 C180.71403322 486.10171812 203.06234057 496.97025089 226 505 C227.18851563 505.41765625 228.37703125 505.8353125 229.6015625 506.265625 C231.09816406 506.75289063 231.09816406 506.75289063 232.625 507.25 C233.62789062 507.58515625 234.63078125 507.9203125 235.6640625 508.265625 C244.88699744 510.29596665 251.87122237 508.09559117 260.5625 504.75 C261.74199219 504.30253418 262.92148437 503.85506836 264.13671875 503.39404297 C294.19472681 491.71599193 321.38634325 474.96113565 345 453 C346.32954696 451.84977537 347.66276807 450.70378111 349 449.5625 C356.56967776 442.95623577 363.58737461 435.73098949 370 428 C370.41975098 427.49404297 370.83950195 426.98808594 371.27197266 426.46679688 C383.09420974 412.14030157 393.84038767 397.16835469 403 381 C403.45874512 380.1946582 403.91749023 379.38931641 404.39013672 378.55957031 C417.22403294 355.90454876 427.10734116 332.42681226 436 308 C436.45584473 306.76467529 436.45584473 306.76467529 436.92089844 305.50439453 C447.64241456 276.23558321 454.07731815 245.06197762 458.64208984 214.30761719 C459.05004633 211.67732745 459.50459278 209.05659146 459.95703125 206.43359375 C461.18409576 199.10758553 462.11070299 191.74799706 463 184.375 C463.08715271 183.65623688 463.17430542 182.93747375 463.26409912 182.19692993 C464.79002021 169.53185476 465.92507205 156.86905784 466.7734375 144.13964844 C466.99793759 141.02858034 467.2731474 137.92596523 467.5625 134.8203125 C468.08394587 129.04926412 468.45269383 123.28030468 468.75244141 117.49365234 C468.92846919 114.12626871 469.15375284 110.76440898 469.39208984 107.40087891 C472.5425169 82.70054055 472.5425169 82.70054055 465.39453125 60.328125 C461.53994293 57.08550054 457.27927969 55.05546866 452.63378906 53.17089844 C448.2993747 51.24395635 444.7455235 48.37237494 441 45.5 C439.51370827 44.42252815 438.0241011 43.34961524 436.53125 42.28125 C431.83041518 38.88620263 427.16344362 35.44614767 422.5 32 C416.02449912 27.21574128 409.52679023 22.46408655 403 17.75 C402.24009766 17.20085938 401.48019531 16.65171875 400.69726562 16.0859375 C394.5005265 11.27573424 394.5005265 11.27573424 387.04277706 9.71759129 C386.01333601 9.7055921 384.98389496 9.69359292 383.92325872 9.68123013 C382.78866376 9.67818825 381.65406879 9.67514638 380.48509216 9.67201233 C379.28241402 9.66113112 378.07973588 9.65024992 376.84061295 9.63903898 C373.49583988 9.61107429 370.15124032 9.59217884 366.80639803 9.57730114 C363.93861116 9.56292746 361.07089969 9.54116601 358.20316141 9.51932568 C347.92589581 9.44115136 337.6485516 9.39218988 327.37109375 9.34765625 C325.73150034 9.34035088 324.09190698 9.33303453 322.45231366 9.3257072 C307.13966826 9.25799641 291.82700055 9.20001409 276.51425076 9.16217899 C272.96628725 9.15326064 269.41832411 9.14421331 265.87036133 9.13500977 C264.54766959 9.13159122 264.54766959 9.13159122 263.1982568 9.12810361 C248.94181396 9.08980917 234.68617994 8.99978764 220.43013763 8.88874263 C205.77822072 8.77555972 191.12671879 8.71200869 176.47436959 8.6955089 C168.25386414 8.68496815 160.03470423 8.65280228 151.81463432 8.56437874 C144.80671142 8.48907343 137.80036402 8.45881356 130.79205721 8.4854557 C127.22202627 8.49766564 123.65533074 8.48970098 120.08582115 8.42341232 C103.04394127 8.12375004 91.71965966 9.45854084 78.94370282 21.2814244 Z " fill="#FEFEFE" transform="translate(0,0)"/>
<path d="M0 0 C1.80914376 -0.02016672 1.80914376 -0.02016672 3.65483588 -0.04074085 C6.99095385 -0.07266657 10.32575899 -0.08228678 13.66193855 -0.0821445 C17.26491009 -0.0873067 20.86763656 -0.12100738 24.47047424 -0.15066528 C32.34497391 -0.20986587 40.21931295 -0.23180625 48.09400392 -0.24632883 C53.01782092 -0.25562032 57.94158923 -0.27291007 62.86537743 -0.29183578 C76.51634895 -0.34315933 90.16727642 -0.38626338 103.81834888 -0.39546394 C105.12800875 -0.396356 105.12800875 -0.396356 106.46412639 -0.39726608 C108.23391703 -0.39843998 110.00370768 -0.39960941 111.77349833 -0.40077437 C112.65194918 -0.40136276 113.53040002 -0.40195115 114.43547058 -0.40255737 C115.31500307 -0.4031399 116.19453556 -0.40372243 117.10072055 -0.40432261 C131.33109705 -0.4153382 145.56046164 -0.48675342 159.79047851 -0.58491267 C174.42449844 -0.68504275 189.05801644 -0.73598502 203.69238585 -0.73775089 C211.89934223 -0.73982976 220.10506834 -0.76222873 228.31170082 -0.83856583 C235.30496925 -0.90333619 242.29657564 -0.92246638 249.29006968 -0.88433267 C252.85196652 -0.86621193 256.41057658 -0.86813371 259.97208595 -0.92821121 C276.99245432 -1.19836369 288.29688307 0.17459764 301.05934846 11.97094274 C304.46805459 14.98190953 308.21611789 17.52629068 311.9415741 20.12625122 C318.95155977 25.18128785 325.91503468 30.2972651 332.86540222 35.43386841 C339.28440994 40.17246592 345.74267594 44.85491713 352.21891785 49.5149231 C352.92016785 50.01959106 353.62141785 50.52425903 354.34391785 51.04421997 C354.95614197 51.48403198 355.56836609 51.92384399 356.19914246 52.37698364 C357.09258362 53.02630859 357.09258362 53.02630859 358.0040741 53.68875122 C358.72933289 54.05283081 359.45459167 54.4169104 360.201828 54.79202271 C363.14851225 57.89318634 362.55185626 61.6303168 362.50016785 65.68093872 C362.50284668 66.59781967 362.50552551 67.51470062 362.50828552 68.45936584 C362.50872964 71.49470609 362.47690161 74.52862972 362.4415741 77.56375122 C362.43542084 78.6051828 362.42926758 79.64661438 362.42292786 80.71960449 C362.2403715 111.13744061 360.3292618 141.57745453 356.3790741 171.743927 C355.97471988 174.91926591 355.61077339 178.09756183 355.2540741 181.27859497 C354.14344832 191.12073759 352.97993279 200.84840138 350.87516785 210.53250122 C349.90385612 215.02639105 349.12220708 219.55196858 348.31632996 224.07791138 C344.72158002 244.13490223 340.30339313 263.87508375 333.826828 283.20877075 C332.94015224 285.88142725 332.08626048 288.56335311 331.23454285 291.24734497 C316.01502181 338.71803782 293.58360839 385.63901526 259.1993866 422.34500122 C257.24020646 424.43665261 255.36375669 426.57153023 253.5040741 428.75125122 C246.85565749 436.36275621 239.66369639 443.19059112 231.7618866 449.48562622 C229.9841543 450.90579763 228.22687719 452.35215294 226.4962616 453.82937622 C204.57395676 472.46668737 178.08319671 486.24771192 151.2540741 496.31375122 C149.91578552 496.82820801 149.91578552 496.82820801 148.55046082 497.35305786 C138.39632651 501.02296198 131.00739207 499.87498498 120.9415741 496.37625122 C119.90299255 496.0208728 118.86441101 495.66549438 117.7943573 495.29934692 C89.15219385 485.21583933 63.06806179 470.40758039 40.0040741 450.68875122 C39.23192566 450.02875122 38.45977722 449.36875122 37.66423035 448.68875122 C25.87374439 438.33038752 14.52622627 427.18127172 5.0040741 414.68875122 C4.07583045 413.5011404 3.1474348 412.31364837 2.21891785 411.12625122 C-59.81817301 330.95617659 -78.52986307 224.66407534 -86.1834259 126.06375122 C-86.26837311 124.97281158 -86.35332031 123.88187195 -86.44084167 122.75787354 C-87.39515942 110.36109316 -88.20739443 97.97516635 -88.6229248 85.54736328 C-88.82283485 80.04600434 -89.28818691 74.64113685 -89.99111938 69.18029785 C-90.51925142 63.88657992 -90.77519515 59.00774314 -87.41682434 54.63064575 C-82.97931842 50.44704831 -77.86742002 47.3576052 -72.62971497 44.27859497 C-68.56904912 41.82744035 -64.80408443 39.00984525 -60.9959259 36.18875122 C-59.5128194 35.11798164 -58.02843395 34.04898136 -56.5428009 32.98171997 C-51.75219061 29.52195037 -46.99788107 26.01383482 -42.2459259 22.50125122 C-34.5521758 16.81548535 -26.7986438 11.223928 -18.9959259 5.68875122 C-18.02485555 4.83292009 -17.05378519 3.97708897 -16.05328846 3.09532356 C-11.07855819 -0.42485064 -5.90161976 -0.0299387 0 0 Z M-19.92711937 26.87622392 C-23.43231185 29.94720082 -27.24952335 32.57451875 -31.0584259 35.25125122 C-32.54788791 36.32252811 -34.0363135 37.39524886 -35.52326965 38.47000122 C-37.77271901 40.08948655 -40.02280979 41.70806843 -42.27375793 43.32546997 C-43.02898743 43.86816528 -43.78421692 44.4108606 -44.56233215 44.97000122 C-45.31715881 45.51019897 -46.07198547 46.05039673 -46.84968567 46.60696411 C-48.35997362 47.70035219 -49.85936933 48.80895052 -51.34724426 49.93264771 C-55.01578566 52.68415502 -58.51324482 55.01829266 -62.6834259 56.94265747 C-67.5410217 59.38375507 -71.39068415 61.78019646 -73.9959259 66.68875122 C-76.35597613 77.24954009 -74.99776651 88.44712989 -74.17988586 99.13388062 C-73.93328072 102.55877936 -73.75501141 105.98580909 -73.57739258 109.41487122 C-68.77958021 201.51749081 -51.19013951 296.03287944 49.0040741 437.68875122 C53.47055625 441.62382067 58.18152128 445.20434584 63.0040741 448.68875122 C63.63281433 449.14588501 64.26155457 449.6030188 64.90934753 450.07400513 C84.6484233 464.31581216 115.49009836 485.27696141 141.0040741 482.68875122 C144.28265924 481.89955346 147.40653362 480.79686417 150.5665741 479.62625122 C151.88202209 479.15034546 151.88202209 479.15034546 153.2240448 478.66482544 C161.05003508 475.77867498 168.56353611 472.44757222 176.0040741 468.68875122 C176.67503113 468.35649536 177.34598816 468.0242395 178.03727722 467.68191528 C202.89640521 455.32146842 227.44252775 437.31957878 245.2306366 415.82937622 C246.64632418 414.12057271 248.11049145 412.4519705 249.5900116 410.79812622 C261.610697 397.31115923 271.9522546 382.36696866 280.87809753 366.66726685 C281.66357994 365.28705231 282.45649533 363.9110529 283.25505066 362.5383606 C296.66800385 339.44544488 306.5062239 314.95675955 315.0040741 289.68875122 C315.55321472 288.06791626 315.55321472 288.06791626 316.1134491 286.41433716 C337.28278013 223.53912298 343.85872474 157.12316865 347.75065613 91.24832153 C347.97275969 88.12860094 348.30596992 85.05595051 348.6993866 81.95437622 C349.75909273 72.9677227 349.75909273 72.9677227 346.63737488 64.81228638 C342.73778783 61.1775196 338.14069624 58.68856316 333.49333191 56.13406372 C329.26858622 53.68109251 325.45194116 50.70184751 321.5665741 47.75125122 C319.96679398 46.56395002 318.36522748 45.37905203 316.7618866 44.19656372 C315.97201355 43.61294067 315.1821405 43.02931763 314.36833191 42.42800903 C309.94578148 39.17457561 305.51549905 35.92668005 301.01643759 32.77964193 C297.22509065 30.10249517 293.59746517 27.39296163 290.15540981 24.27603436 C277.20809259 13.0024163 265.26733632 12.81887145 248.65080261 12.99075317 C245.93009432 12.97859283 243.20967932 12.94713233 240.48912048 12.91685486 C233.90726931 12.85563701 227.32732765 12.86379156 220.74535102 12.89819417 C215.38917985 12.92497386 210.03354507 12.92635655 204.67733574 12.91020775 C203.91093451 12.907927 203.14453327 12.90564624 202.35490776 12.90329638 C200.79728111 12.89856697 199.23965462 12.89378648 197.68202829 12.8889555 C183.122861 12.84685135 168.56475063 12.88475866 154.00572436 12.95014437 C141.55331139 13.00412002 129.1026336 12.98702018 116.65031433 12.91848755 C102.13988914 12.83864848 87.63051465 12.80515706 73.11988395 12.84279794 C71.5681322 12.84668683 70.01638029 12.8505108 68.46462822 12.85426903 C67.70142476 12.8561339 66.93822131 12.85799877 66.15189048 12.85992015 C60.81178543 12.86979423 55.47240723 12.84711006 50.13243294 12.81118202 C43.61011261 12.76811398 37.09011146 12.77590068 30.56799097 12.84606037 C27.24791097 12.88053212 23.93494515 12.88623137 20.61446953 12.8449173 C3.36108188 12.64908631 -7.03685988 15.13316371 -19.92711937 26.87622392 Z " fill="#D4A61B" transform="translate(106.99592590332031,9.311248779296875)"/>
<path d="M0 0 C2.04905856 1.45028244 3.92756229 2.98315314 5.80859375 4.64453125 C6.42605469 5.18078125 7.04351562 5.71703125 7.6796875 6.26953125 C14.85131328 12.93220295 19.69744608 21.58647361 20.14453125 31.47265625 C20.45861576 50.27113186 20.45861576 50.27113186 15.80859375 57.64453125 C15.38449219 58.33160156 14.96039063 59.01867187 14.5234375 59.7265625 C8.59183704 68.36786345 0.55603625 74.81188845 -9.19140625 78.64453125 C-9.85140625 78.64453125 -10.51140625 78.64453125 -11.19140625 78.64453125 C-8.23657751 90.61233006 -4.88536551 99.09772341 5.49609375 106.58203125 C14.97538061 112.1459605 25.7491003 112.16138578 36.24609375 109.58203125 C45.16269228 106.36006708 51.48362717 99.9479126 55.80859375 91.64453125 C57.70916652 87.15946747 58.80859375 83.54356311 58.80859375 78.64453125 C58.17953125 78.42539062 57.55046875 78.20625 56.90234375 77.98046875 C44.65934715 73.44465977 36.47739645 66.08167934 30.84375 54.2890625 C29.23407093 50.17678804 28.43013587 46.00460285 27.80859375 41.64453125 C31.12109375 41.734375 31.12109375 41.734375 34.80859375 42.64453125 C36.55859375 45.5234375 36.55859375 45.5234375 37.80859375 49.20703125 C41.67062518 59.36669039 46.49600135 64.64433343 56.24072266 69.47851562 C62.30797677 72.19948924 68.23092363 72.72101579 74.80859375 72.64453125 C74.72609375 71.69578125 74.64359375 70.74703125 74.55859375 69.76953125 C74.59725117 60.20181946 80.47994115 52.18454384 86.80859375 45.546875 C92.21715872 40.37976382 97.86447505 37.34430076 104.80859375 34.64453125 C104.04491603 25.86223752 101.08427911 17.96701039 95.0078125 11.46875 C85.36101717 3.46687892 74.95144068 1.71147699 62.80859375 2.64453125 C53.17650103 4.94728566 45.36504101 10.63335584 40.12890625 18.98828125 C37.65307677 23.96923996 36.21798565 29.28055147 34.80859375 34.64453125 C32.49859375 34.31453125 30.18859375 33.98453125 27.80859375 33.64453125 C28.17193603 22.74426278 33.01591314 13.56227036 40.46484375 5.68359375 C51.38148723 -3.81388607 62.56521306 -6.39962615 76.55810547 -5.59814453 C88.18861477 -4.34399762 97.89649109 2.61763355 105.203125 11.37890625 C110.1007287 18.29036647 112.39546187 25.24418309 112.80859375 33.64453125 C115.44859375 33.64453125 118.08859375 33.64453125 120.80859375 33.64453125 C120.70546875 32.73703125 120.60234375 31.82953125 120.49609375 30.89453125 C120.62216114 20.45194885 127.00240386 12.2577665 134.04296875 5.21484375 C137.44119454 2.05660566 140.5705128 -0.46079727 144.80859375 -2.35546875 C145.85660156 -2.82726562 145.85660156 -2.82726562 146.92578125 -3.30859375 C158.0621129 -7.43316103 171.12750586 -6.75101916 181.875 -1.9609375 C193.45640072 4.37721922 201.3921037 13.65328238 205.14453125 26.37890625 C207.7525353 39.20414969 205.31609398 49.89726523 198.80859375 61.08203125 C198.14859375 61.92765625 197.48859375 62.77328125 196.80859375 63.64453125 C196.12796875 64.61390625 195.44734375 65.58328125 194.74609375 66.58203125 C188.83104564 73.4768726 179.72051031 78.2186246 170.80859375 79.64453125 C166.79277684 79.85413498 162.8245496 79.83083848 158.80859375 79.64453125 C158.80601562 80.2271875 158.8034375 80.80984375 158.80078125 81.41015625 C158.33317698 91.32336678 153.90885215 100.70564236 146.80859375 107.64453125 C137.41318805 115.25833945 129.32204456 118.96177379 117.24609375 119.08203125 C116.05898804 119.09737915 116.05898804 119.09737915 114.84790039 119.11303711 C103.59482231 118.94626437 94.19124115 114.19731245 85.765625 106.8671875 C78.93097232 99.73078415 74.86634618 90.39799261 73.80859375 80.64453125 C71.49859375 80.64453125 69.18859375 80.64453125 66.80859375 80.64453125 C66.72222656 81.25039063 66.63585937 81.85625 66.546875 82.48046875 C64.48532603 94.77410941 58.59974126 104.52291535 48.73046875 112.27734375 C38.73912015 118.84645878 27.0383187 121.29219773 15.2265625 119.18359375 C3.86240108 116.14121983 -6.55315836 109.14491746 -12.79296875 99.0546875 C-16.11732647 92.59065859 -18.30271649 86.97076878 -18.19140625 79.64453125 C-18.97902344 79.70253906 -19.76664063 79.76054687 -20.578125 79.8203125 C-32.77360634 80.32545078 -42.67536247 76.94694939 -51.96875 68.953125 C-61.76949216 58.77344377 -65.63457261 46.97283987 -65.4609375 33.08203125 C-64.56399994 21.64282759 -59.09869718 11.89839986 -50.578125 4.3203125 C-47.8633777 2.24297404 -45.11914989 0.40698316 -42.19140625 -1.35546875 C-41.44632813 -1.81050781 -40.70125 -2.26554688 -39.93359375 -2.734375 C-28.03962749 -8.68135813 -11.02217702 -6.81763891 0 0 Z " fill="#09AA57" transform="translate(173.19140625,235.35546875)"/>
<path d="M0 0 C2.97 0 5.94 0 9 0 C9 1.32 9 2.64 9 4 C10.134375 3.938125 11.26875 3.87625 12.4375 3.8125 C18.89312147 3.84683841 23.99764966 5.40629259 29.0625 9.4375 C32.34600308 14.04813325 31.8359125 19.64746348 31 25 C28.79383411 31.67458663 25.21810599 36.38865052 20 41 C21.65191186 44.91739098 24.30452789 47.89050273 27.0625 51.0625 C28.05139501 52.21692244 29.03966577 53.3718799 30.02734375 54.52734375 C30.52347168 55.10597168 31.01959961 55.68459961 31.53076172 56.28076172 C33.75046029 58.87815576 35.94352896 61.49532946 38.125 64.125 C38.84945312 64.99382812 39.57390625 65.86265625 40.3203125 66.7578125 C42 69 42 69 43 72 C43.94359375 71.79117188 43.94359375 71.79117188 44.90625 71.578125 C47.95609504 71.19230123 50.0248591 71.15901557 53 72 C57.63414693 76.87042745 60.67317947 82.72921868 63 89 C25.37210003 97.16814037 -14.24210418 95.01240379 -52 89 C-50.7036851 84.7728862 -49.15318312 81.01649376 -46.9375 77.1875 C-46.41027344 76.23230469 -45.88304687 75.27710938 -45.33984375 74.29296875 C-42.67311922 71.67966775 -42.16866728 71.73454343 -38.62890625 71.57421875 C-35.00591609 71.36127596 -33.31622686 70.89216647 -30.8125 68.2265625 C-29.84995848 67.04602435 -28.91308157 65.84419587 -28 64.625 C-27.49799072 63.9966626 -26.99598145 63.3683252 -26.47875977 62.72094727 C-25.45792736 61.44073232 -24.44680265 60.15271303 -23.44580078 58.85693359 C-22.10967006 57.14085621 -20.73955425 55.46514511 -19.33984375 53.80078125 C-15.87613495 49.67249092 -12.68158049 45.68650049 -10 41 C-10.7425 40.278125 -11.485 39.55625 -12.25 38.8125 C-18.1100534 32.81926357 -22.06638652 27.46031312 -22.4375 18.9375 C-22.27360316 14.24862529 -21.25897349 11.51626087 -18 8 C-11.82202507 4.26747348 -7.03806253 3.88269896 0 4 C0 2.68 0 1.36 0 0 Z " fill="#292526" transform="translate(238,122)"/>
<path d="M0 0 C49.83 0 99.66 0 151 0 C151 8.58 151 17.16 151 26 C101.17 26 51.34 26 0 26 C0 17.42 0 8.84 0 0 Z " fill="#00A851" transform="translate(168,422)"/>
<path d="M0 0 C49.83 0 99.66 0 151 0 C151 8.58 151 17.16 151 26 C101.17 26 51.34 26 0 26 C0 17.42 0 8.84 0 0 Z " fill="#1F429C" transform="translate(168,365)"/>
<path d="M0 0 C7.73144337 5.51764345 15.24428199 13.30453499 17 23 C17.03888349 25.33300933 17.0448635 27.66709801 17 30 C16.39414063 30.1959375 15.78828125 30.391875 15.1640625 30.59375 C3.33746524 34.81493548 -4.19665643 41.92676784 -10 53 C-12.11259096 57.52920793 -13.37884537 62.03076295 -14 67 C-24.79884529 67.75195054 -33.04135971 65.89841145 -41.375 58.75 C-49.31035282 51.04101223 -53.89878174 42.33033985 -54.4375 31.125 C-54.02722196 21.05740802 -50.43611827 13.35508316 -43.4375 6.1953125 C-31.30152373 -4.73484562 -14.86250543 -8.40547182 0 0 Z " fill="#FDFDFD" transform="translate(169,241)"/>
<path d="M0 0 C9.37315558 6.94605807 15.76246822 14.43074653 18 26 C19.12385827 35.89918999 16.60357083 44.78357575 10.77734375 52.83203125 C4.08091782 61.00019915 -2.57267704 64.95645429 -13 67 C-15.77625018 67.24936379 -18.2120142 67.21866555 -21 67 C-21.29132813 66.02160156 -21.58265625 65.04320312 -21.8828125 64.03515625 C-25.86132526 51.11818551 -31.24929691 40.9501645 -43.21484375 33.6484375 C-46.43298166 31.98243687 -49.46170968 30.80451193 -53 30 C-53.65522043 22.46496505 -51.48681146 16.42185257 -47.046875 10.3125 C-35.27135331 -3.52167933 -16.66171448 -9.23182402 0 0 Z " fill="#FEFDFD" transform="translate(354,241)"/>
<path d="M0 0 C6.62525554 5.30523309 11.6929035 13.16971943 13.62109375 21.4609375 C13.64549328 23.12742556 13.6490072 24.7945046 13.62109375 26.4609375 C12.63109375 26.945625 11.64109375 27.4303125 10.62109375 27.9296875 C-1.50307405 34.01710365 -10.0574828 40.47246317 -15.37890625 53.4609375 C-16.32038624 57.10917246 -16.95903797 60.71831856 -17.37890625 64.4609375 C-20.01890625 64.4609375 -22.65890625 64.4609375 -25.37890625 64.4609375 C-25.67023438 63.39875 -25.9615625 62.3365625 -26.26171875 61.2421875 C-29.19565411 50.8510919 -29.19565411 50.8510919 -35.14453125 41.94140625 C-36.37890625 40.4609375 -36.37890625 40.4609375 -37.37890625 37.4609375 C-39.18454372 36.39589927 -39.18454372 36.39589927 -41.37890625 35.4609375 C-43.00979161 34.47056487 -44.63447417 33.46992945 -46.25390625 32.4609375 C-49.8810523 30.26104122 -53.24572906 28.54861571 -57.37890625 27.4609375 C-57.78930894 18.80400583 -54.20289373 11.21217537 -48.75390625 4.5859375 C-35.4904747 -9.28266964 -15.84854438 -10.25340967 0 0 Z " fill="#FCFCFC" transform="translate(265.37890625,243.5390625)"/>
<path d="M0 0 C2.31 0 4.62 0 7 0 C7.27972656 1.03898437 7.55945313 2.07796875 7.84765625 3.1484375 C11.36385823 15.61225134 16.36333003 26.43542193 28.04296875 33.1796875 C31.6036264 35.01011939 35.25035401 36.59388275 39 38 C38.08060948 48.57299103 33.94283873 56.89915831 26 64 C16.48766463 70.70112973 5.44477666 72.61692209 -6 71 C-15.57325629 68.03087148 -23.65351437 61.84628859 -28.375 52.9375 C-30.56176856 48.01243276 -32 43.42204724 -32 38 C-31.01 37.5153125 -30.02 37.030625 -29 36.53125 C-14.84135343 29.42145103 -7.73886935 21.92106031 -2 7 C-1.31320058 4.67251306 -0.64238957 2.34013344 0 0 Z " fill="#FDFDFD" transform="translate(194,276)"/>
<path d="M0 0 C2.64 0 5.28 0 8 0 C8.15855469 0.75023437 8.31710937 1.50046875 8.48046875 2.2734375 C11.27407542 14.52826455 15.54078087 24.3652998 26.3046875 31.53515625 C30.38777909 33.89290106 34.44566657 35.71544442 39 37 C38.79190879 45.89116981 36.45458607 52.89184359 30.6875 59.75 C29.800625 60.4925 28.91375 61.235 28 62 C27.42507813 62.50273437 26.85015625 63.00546875 26.2578125 63.5234375 C17.53597565 70.70406623 8.07096606 71.97726056 -3 71 C-11.57534715 69.60050334 -19.72527855 64.29236397 -24.9609375 57.4296875 C-26.45250942 54.99224071 -27.78869771 52.58720664 -29 50 C-29.38027344 49.22011719 -29.76054687 48.44023437 -30.15234375 47.63671875 C-31.21130397 44.34271808 -31.13481153 41.43769404 -31 38 C-30.02160156 37.53851563 -29.04320312 37.07703125 -28.03515625 36.6015625 C-15.82666344 30.62354636 -7.84140699 23.96077246 -2.9296875 10.8515625 C-1.75689245 7.254334 -0.78305787 3.7017281 0 0 Z " fill="#FDFDFD" transform="translate(286,276)"/>
<path d="M0 0 C9.62079052 7.1324056 15.82924196 16.46831449 18.22265625 28.23828125 C19.6463464 40.75600972 17.06535584 52.1898224 9.22265625 62.23828125 C8.54203125 63.20765625 7.86140625 64.17703125 7.16015625 65.17578125 C0.09439645 73.41194298 -10.20524149 77.66483311 -20.76171875 78.5859375 C-32.71375931 79.15533869 -42.51029205 76.58712161 -51.96875 68.8984375 C-59.61681139 61.87807877 -64.46944023 54.4315218 -66.77734375 44.23828125 C-66.90234375 41.30078125 -66.90234375 41.30078125 -66.77734375 39.23828125 C-56.16995648 40.94915016 -48.3921864 45.52875258 -41.47265625 53.79296875 C-38.2621139 58.4238432 -35.77734375 63.54417716 -35.77734375 69.23828125 C-26.1115769 72.03566789 -15.78116584 70.40692661 -6.77734375 66.23828125 C1.75029654 60.6747311 7.41706046 52.5832666 9.85546875 42.6640625 C11.3311884 32.91489335 10.054877 23.532127 4.1640625 15.39453125 C-2.81645499 7.38989062 -10.12939326 1.94748969 -20.89453125 0.94921875 C-33.13467992 0.6324149 -41.58611105 3.44656148 -50.46484375 11.83203125 C-56.01112557 17.71108998 -58.93483856 25.23448195 -59.77734375 33.23828125 C-62.08734375 32.90828125 -64.39734375 32.57828125 -66.77734375 32.23828125 C-67.63252963 24.71264554 -65.01828289 17.69990306 -60.58984375 11.60351562 C-55.63101765 5.44187903 -50.09140796 -0.49190181 -42.77734375 -3.76171875 C-42.07867187 -4.07625 -41.38 -4.39078125 -40.66015625 -4.71484375 C-27.07439034 -9.7466089 -12.04902086 -7.64290915 0 0 Z " fill="#EE2E59" transform="translate(360.77734375,236.76171875)"/>
<path d="M0 0 C2.04905856 1.45028244 3.92756229 2.98315314 5.80859375 4.64453125 C6.42605469 5.18078125 7.04351562 5.71703125 7.6796875 6.26953125 C14.85131328 12.93220295 19.69744608 21.58647361 20.14453125 31.47265625 C20.45861576 50.27113186 20.45861576 50.27113186 15.80859375 57.64453125 C15.38449219 58.33160156 14.96039063 59.01867187 14.5234375 59.7265625 C9.05778067 67.68906534 1.75317543 74.00605735 -7.19140625 77.64453125 C-8.51140625 77.64453125 -9.83140625 77.64453125 -11.19140625 77.64453125 C-11.19140625 75.33453125 -11.19140625 73.02453125 -11.19140625 70.64453125 C-10.49015625 70.31582031 -9.78890625 69.98710937 -9.06640625 69.6484375 C0.6282883 64.78791808 7.51180245 58.67944538 11.12109375 48.23828125 C13.71786861 38.44135791 13.1352947 29.28760179 8.55078125 20.1328125 C3.52083087 12.03816557 -2.92371009 6.23796918 -12.06640625 3.3046875 C-21.62474557 1.28548832 -31.73240847 1.3805293 -40.19140625 6.64453125 C-49.13039841 13.3649927 -54.70378954 20.64854433 -57.19140625 31.64453125 C-58.36672172 41.58706481 -55.73158468 50.46716362 -49.91015625 58.54296875 C-42.83280979 67.19663329 -34.61724853 71.23132428 -23.50390625 72.39453125 C-22.06735226 72.49283354 -20.62996651 72.58212083 -19.19140625 72.64453125 C-19.19140625 74.95453125 -19.19140625 77.26453125 -19.19140625 79.64453125 C-30.73887708 80.58081267 -40.19460078 77.920588 -49.56640625 71.01953125 C-58.88539287 63.00368748 -64.46595715 51.80183953 -65.4296875 39.63671875 C-65.74020316 26.59506085 -62.06473646 16.32047424 -53.19140625 6.64453125 C-49.73324955 3.56889114 -46.1535566 1.02967842 -42.19140625 -1.35546875 C-41.44632813 -1.81050781 -40.70125 -2.26554688 -39.93359375 -2.734375 C-28.03962749 -8.68135813 -11.02217702 -6.81763891 0 0 Z " fill="#26489F" transform="translate(173.19140625,235.35546875)"/>
<path d="M0 0 C9.74182658 5.80259805 16.38119196 14.27984899 20 25 C20.5961843 28.05599653 20.84649521 30.87873598 21 34 C21.73863281 33.95359375 22.47726562 33.9071875 23.23828125 33.859375 C36.60961077 33.3836479 46.84719387 38.2751842 56.6875 47.125 C63.42398007 54.22180343 66.77236032 63.43287698 68 73 C62.25 72.125 62.25 72.125 60 71 C59.35610965 69.33466542 58.78429798 67.64116067 58.25 65.9375 C54.78789531 56.11123228 48.88604376 49.58624242 39.65234375 44.77734375 C33.51957174 42.06570604 27.66798447 41.25353553 21 41 C20.938125 42.0725 20.87625 43.145 20.8125 44.25 C19.28443699 55.65015432 13.55047215 64.50022146 5 72 C0.08258282 75.36283688 -3.96282043 78 -10 78 C-10 75.69 -10 73.38 -10 71 C-9.28714844 70.6596875 -8.57429688 70.319375 -7.83984375 69.96875 C2.94339807 64.51182009 8.21858101 58.44590802 12 47 C12.33 46.01 12.66 45.02 13 44 C14.07909142 32.42289059 12.11929253 22.91908445 4.9375 13.625 C-0.91847413 7.44656033 -9.64148405 3.4116744 -18.1015625 2.76171875 C-28.78597043 2.53665916 -36.80269913 4.46206663 -45.1875 11.2578125 C-52.09320795 17.89562661 -54.61273078 25.9143342 -57 35 C-59.31 34.67 -61.62 34.34 -64 34 C-63.63665772 23.09973153 -58.79268061 13.91773911 -51.34375 6.0390625 C-36.64430743 -6.74945253 -17.20910127 -9.21221664 0 0 Z " fill="#08080D" transform="translate(265,235)"/>
<path d="M0 0 C-0.4528445 11.90981022 -3.24659826 20.06668443 -11.546875 28.79296875 C-15.15893836 32.04267544 -19.91303328 36 -25 36 C-25 38.31 -25 40.62 -25 43 C-24.34 43.33 -23.68 43.66 -23 44 C-23.66 44 -24.32 44 -25 44 C-22.04517126 55.96779881 -18.69395926 64.45319216 -8.3125 71.9375 C1.16678686 77.50142925 11.94050655 77.51685453 22.4375 74.9375 C31.23999712 71.75676575 37.90938376 65.34286777 42 57 C43.55700835 52.69761245 44.7901147 48.42073474 46 44 C50.95 44.33 55.9 44.66 61 45 C60.67 46.32 60.34 47.64 60 49 C60 48.01 60 47.02 60 46 C57.69 46 55.38 46 53 46 C52.87044922 46.90878906 52.87044922 46.90878906 52.73828125 47.8359375 C50.67673228 60.12957816 44.79114751 69.8783841 34.921875 77.6328125 C24.9305264 84.20192753 13.22972495 86.64766648 1.41796875 84.5390625 C-9.98930792 81.48514591 -20.04537202 74.52460958 -26.56640625 64.62109375 C-32.65998784 53.28885097 -34.76684665 41.28379951 -31.0546875 28.828125 C-26.38537552 16.64462221 -18.46187994 7.49703385 -6.55078125 1.8359375 C-1.77219626 0 -1.77219626 0 0 0 Z " fill="#D4A822" transform="translate(187,270)"/>
<path d="M0 0 C4.65264248 2.60305834 8.19478015 5.8804844 9.7265625 11.11328125 C10.58017138 17.01537695 10.6422762 22.34861513 7.6015625 27.61328125 C5.01655626 31.05040866 2.73594918 33.3637307 -1.2734375 35.11328125 C-6.87986219 35.85360693 -11.60155524 35.8895123 -16.7734375 33.48828125 C-21.70224548 28.80591367 -24.38297914 24.23022742 -24.5859375 17.42578125 C-24.50188684 12.1840764 -23.5386271 8.2731697 -20.2734375 4.11328125 C-14.53314814 -1.32279922 -7.43771706 -2.90096525 0 0 Z " fill="#2F2C2D" transform="translate(348.2734375,38.88671875)"/>
<path d="M0 0 C3.83084349 2.61193874 6.65161815 5.67823629 8.75 9.875 C9.92825095 24.76731939 9.92825095 24.76731939 4.75 30.875 C-0.21881907 34.82977436 -4.28564921 35.52231807 -10.59765625 35.25390625 C-16.0896907 34.4693299 -19.06734848 32.2699223 -22.6875 28 C-25.4706691 22.44571015 -24.96402429 15.88290139 -24.25 9.875 C-22.13869839 5.33961135 -19.34447668 2.7096377 -15.25 -0.125 C-10.0828841 -1.84737197 -5.14400242 -1.78061622 0 0 Z " fill="#2C2829" transform="translate(246.25,39.125)"/>
<path d="M0 0 C0.33 0.99 0.66 1.98 1 3 C1.66644531 2.95359375 2.33289063 2.9071875 3.01953125 2.859375 C15.60723312 2.36643003 25.60532772 7.17374304 34.8125 15.5625 C42.27493997 23.87779026 45.45302492 30.92691519 47 42 C37.68328209 41.64842574 30.07429828 37.56766803 23.625 30.875 C19.52615659 25.92433934 15 18.62582535 15 12 C12.68753088 11.83290546 10.37502385 11.66633538 8.0625 11.5 C6.77472656 11.4071875 5.48695313 11.314375 4.16015625 11.21875 C2.08173561 11.06142822 2.08173561 11.06142822 0 11 C0 7.37 0 3.74 0 0 Z " fill="#D0A522" transform="translate(193,266)"/>
<path d="M0 0 C3.85544798 1.99657127 5.59805092 3.39707638 8 7 C8 8.32 8 9.64 8 11 C5.69 11 3.38 11 1 11 C0.67 9.68 0.34 8.36 0 7 C-2.97 7 -5.94 7 -9 7 C-9.33 8.32 -9.66 9.64 -10 11 C-8.31970703 11.58007812 -8.31970703 11.58007812 -6.60546875 12.171875 C-5.13257091 12.69723984 -3.65992774 13.22331905 -2.1875 13.75 C-1.44951172 14.00265625 -0.71152344 14.2553125 0.04882812 14.515625 C7.05626176 17.05225256 7.05626176 17.05225256 9 21 C9.63701786 24.50702306 9.32445948 27.9086363 8.3125 31.3125 C5.79256042 34.55242231 2.89170537 35.86607679 -1.12109375 36.46875 C-11.1792753 36.56352674 -11.1792753 36.56352674 -14.6875 33.75 C-17.5941854 30.29340115 -19 28.53292947 -19 24 C-15.6875 23.6875 -15.6875 23.6875 -12 24 C-11.54625 24.825 -11.0925 25.65 -10.625 26.5 C-10.08875 27.325 -9.5525 28.15 -9 29 C-5.96394533 29.46331175 -3.04904022 29.2876453 0 29 C0.66 27.02 1.32 25.04 2 23 C1.20335937 22.82984375 0.40671875 22.6596875 -0.4140625 22.484375 C-13.28560189 19.54051928 -13.28560189 19.54051928 -17.4375 14.125 C-18.26138749 11.01253614 -17.94249038 9.07880192 -17 6 C-11.75261858 -0.05467087 -7.79331074 -0.88451686 0 0 Z " fill="#2E2A2B" transform="translate(208,38)"/>
<path d="M0 0 C8.25 0 16.5 0 25 0 C25 1.98 25 3.96 25 6 C19.06 6 13.12 6 7 6 C7 8.31 7 10.62 7 13 C12.61 13 18.22 13 24 13 C24 14.98 24 16.96 24 19 C18.39 19 12.78 19 7 19 C7 22.3 7 25.6 7 29 C13.27 29 19.54 29 26 29 C26 30.65 26 32.3 26 34 C17.42 34 8.84 34 0 34 C0 22.78 0 11.56 0 0 Z " fill="#2C2829" transform="translate(159,39)"/>
<path d="M0 0 C2.31 0 4.62 0 7 0 C7 4.29 7 8.58 7 13 C11.29 13 15.58 13 20 13 C20 8.71 20 4.42 20 0 C22.31 0 24.62 0 27 0 C27 11.22 27 22.44 27 34 C25.02 34 23.04 34 21 34 C21 29.05 21 24.1 21 19 C16.05 19 11.1 19 6 19 C6 23.95 6 28.9 6 34 C4.02 34 2.04 34 0 34 C0 22.78 0 11.56 0 0 Z " fill="#2B2829" transform="translate(291,39)"/>
<path d="M0 0 C3.97731911 2.14163337 6.37038213 3.77951502 8 8 C8.71923546 14.18355678 8.64062188 19.74132396 5 25 C1.43105583 27.37929611 -0.58661435 27.53495216 -4.7734375 27.453125 C-7.38360617 26.92193278 -8.27562387 26.24664605 -10 24.25 C-13.04972645 19.29419452 -13.8046715 14.83930531 -13 9 C-10.45958352 2.54834825 -7.15905848 -0.84224217 0 0 Z " fill="#322F2F" transform="translate(180,84)"/>
<path d="M0 0 C13.66323203 -0.85842295 23.3309363 3.07542961 33.90234375 11.51953125 C41.82041734 18.64059962 45.66765957 28.61693317 47 39 C41.25 38.125 41.25 38.125 39 37 C38.35610965 35.33466542 37.78429798 33.64116067 37.25 31.9375 C33.78789531 22.11123228 27.88604376 15.58624242 18.65234375 10.77734375 C12.51957174 8.06570604 6.66798447 7.25353553 0 7 C0 4.69 0 2.38 0 0 Z " fill="#09A956" transform="translate(286,269)"/>
<path d="M0 0 C3.3125 0.08984375 3.3125 0.08984375 7 1 C8.75 3.87890625 8.75 3.87890625 10 7.5625 C14.13118703 18.43021377 19.77424191 23.91130278 30.33203125 28.65625 C35.54869131 30.56735869 40.47257266 31.07086445 46 31 C46 33.31 46 35.62 46 38 C34.13241863 38.60917243 24.60588001 36.20047961 15 29 C6.21261246 20.9666965 1.66769368 11.69874672 0 0 Z " fill="#06060B" transform="translate(201,277)"/>
<path d="M0 0 C1.69921875 1.2421875 1.69921875 1.2421875 3 3 C2.8984375 5.3046875 2.8984375 5.3046875 2.375 7.875 C1.93831311 10.50716926 1.93831311 10.50716926 2 13 C4.27127334 16.02409364 4.27127334 16.02409364 7 18 C7 18.66 7 19.32 7 20 C7.639375 20.103125 8.27875 20.20625 8.9375 20.3125 C9.618125 20.539375 10.29875 20.76625 11 21 C11.33 21.99 11.66 22.98 12 24 C6.62648608 26.67261613 2.4690539 27.47110284 -3.5 27.375 C-4.58087891 27.39240234 -4.58087891 27.39240234 -5.68359375 27.41015625 C-10.81769153 27.382304 -14.40568798 26.28506571 -19 24 C-17.57390841 20.63797061 -15.85651485 18.76324421 -13.0625 16.4375 C-8.00920945 12.46373426 -8.00920945 12.46373426 -5 7 C-5.66 6.67 -6.32 6.34 -7 6 C-6.34 4.35 -5.68 2.7 -5 1 C-5.66 0.67 -6.32 0.34 -7 0 C-4.26634878 -1.36682561 -2.89333621 -0.84683011 0 0 Z " fill="#312E2F" transform="translate(247,393)"/>
<path d="M0 0 C2.75329021 1.79562405 4.52627461 3.05254922 6 6 C6.41251687 10.92640344 6.6526414 15.47717008 4.6875 20.0625 C2.15496518 22.97022516 0.46385957 23.93987006 -3.375 24.4375 C-7.90430237 23.89086006 -9.1800772 22.48343405 -12 19 C-13.84206499 15.31587001 -13.3617633 11.03017014 -13 7 C-10.2557429 0.72741234 -6.68812021 -0.6918745 0 0 Z " fill="#F8F8F8" transform="translate(242,44)"/>
<path d="M0 0 C3.43229611 2.05303624 5.70955241 4.12865724 7 8 C7.43315845 13.6310599 6.59184754 17.10428798 4 22 C0.82169903 24.11886731 -1.19112012 24.56213579 -4.9921875 24.421875 C-7.81258503 23.82926229 -9.50544942 22.45242946 -11.15234375 20.11328125 C-12.9800194 15.55672582 -12.74352748 10.78269027 -12 6 C-8.88372443 0.70233153 -6.08595819 -0.70222595 0 0 Z " fill="#F9F9F9" transform="translate(344,44)"/>
<path d="M0 0 C9.24 0 18.48 0 28 0 C28 1.98 28 3.96 28 6 C24.7 6 21.4 6 18 6 C18 15.57 18 25.14 18 35 C15.69 35 13.38 35 11 35 C11 25.43 11 15.86 11 6 C7.37 6 3.74 6 0 6 C0 4.02 0 2.04 0 0 Z " fill="#2E2A2B" transform="translate(258,39)"/>
<path d="M0 0 C2.31 0 4.62 0 7 0 C7 9.57 7 19.14 7 29 C12.94 29 18.88 29 25 29 C25 30.98 25 32.96 25 35 C16.75 35 8.5 35 0 35 C0 23.45 0 11.9 0 0 Z " fill="#312D2E" transform="translate(129,39)"/>
<path d="M0 0 C1.65 0 3.3 0 5 0 C7.31 4.29 9.62 8.58 12 13 C12.33 8.71 12.66 4.42 13 0 C14.32 0 15.64 0 17 0 C17 8.58 17 17.16 17 26 C15.35 25.67 13.7 25.34 12 25 C9.48757573 21.2013889 7.88566296 17.16599956 6 13 C5.67 17.29 5.34 21.58 5 26 C3.35 26 1.7 26 0 26 C0 17.42 0 8.84 0 0 Z " fill="#3D393A" transform="translate(42,85)"/>
<path d="M0 0 C0 3.3 0 6.6 0 10 C-1.65 10.33 -3.3 10.66 -5 11 C-3.95902388 14.86648272 -2.96301592 18.49461443 -1 22 C-2.65 23.98 -4.3 25.96 -6 28 C-11.26694809 23.93074148 -15.35303296 20.51423072 -16.34765625 13.57421875 C-16.61818914 8.89191869 -16.57156682 6.73702037 -13.625 2.9375 C-8.87192685 -0.57072066 -5.82757939 -0.08325113 0 0 Z " fill="#FAF9FA" transform="translate(238,132)"/>
<path d="M0 0 C6.09206361 -0.42014232 9.11941433 -0.06715472 14 4 C16.49972176 7.74958264 16.74313843 10.6612726 16 15 C13.92396079 20.04535427 11.1823361 24.43726925 7 28 C3.66476748 26.61990379 1.81392049 25.15049348 0 22 C0.495 20.515 0.495 20.515 1 19 C1.66 19 2.32 19 3 19 C3.33 16.69 3.66 14.38 4 12 C2.68 11.34 1.36 10.68 0 10 C0 6.7 0 3.4 0 0 Z " fill="#F9F8F8" transform="translate(248,132)"/>
<path d="M0 0 C1.32 0.33 2.64 0.66 4 1 C4.33 0.67 4.66 0.34 5 0 C10.35674677 -0.46580407 10.35674677 -0.46580407 12.8125 1.3125 C15.42366951 5.0231093 15.37176038 8.61322756 15 13 C13.375 16.4375 13.375 16.4375 11 19 C7.75 19.375 7.75 19.375 5 19 C4.67 21.31 4.34 23.62 4 26 C2.68 26 1.36 26 0 26 C0 17.42 0 8.84 0 0 Z " fill="#333031" transform="translate(243,92)"/>
<path d="M0 0 C5 0 10 0 15 0 C16.2684375 -0.0928125 16.2684375 -0.0928125 17.5625 -0.1875 C20 0 20 0 21.640625 1 C23.78587563 4.15623082 23.31259434 7.5148584 23.1875 11.1875 C23.16719727 12.31188477 23.16719727 12.31188477 23.14648438 13.45898438 C23.11118539 15.30629767 23.05737917 17.15324066 23 19 C21.35 19 19.7 19 18 19 C17.67 14.05 17.34 9.1 17 4 C16.34 4 15.68 4 15 4 C13.58365167 6.83269666 13.6536995 9.47466438 13.4375 12.625 C13.35371094 13.81351563 13.26992188 15.00203125 13.18359375 16.2265625 C13.12300781 17.14179687 13.06242187 18.05703125 13 19 C11.68 19 10.36 19 9 19 C8.67 14.05 8.34 9.1 8 4 C7.01 4.33 6.02 4.66 5 5 C4.67 9.62 4.34 14.24 4 19 C2.68 19 1.36 19 0 19 C0 12.73 0 6.46 0 0 Z " fill="#383435" transform="translate(360,92)"/>
<path d="M0 0 C8.27905408 2.06976352 15.33123091 7.92778173 20 15 C22.08501113 19.24772453 24 23.22447427 24 28 C15.9438847 25.98597118 9.72972894 20.70044934 5 14 C2.64777415 9.51805616 0.6529586 5.06042914 0 0 Z " fill="#F9FAF8" transform="translate(301,278)"/>
<path d="M0 0 C0.66 0.33 1.32 0.66 2 1 C-1.42503294 11.96010539 -5.97824375 19.95513115 -16 26 C-19.5 27.375 -19.5 27.375 -22 28 C-21.61484768 19.14149668 -16.90540049 12.44854369 -10.5 6.5625 C-7.1626667 3.78232689 -4.08747589 1.49541801 0 0 Z " fill="#F4F8F6" transform="translate(277,278)"/>
<path d="M0 0 C2.475 0.495 2.475 0.495 5 1 C5.33 0.67 5.66 0.34 6 0 C7.99952758 -0.04346799 10.00039988 -0.039992 12 0 C14.02126284 0 16.04291874 -0.04256811 18.0625 -0.125 C21 0 21 0 23 2 C23.14517744 4.9093558 23.18630796 7.719946 23.125 10.625 C23.11597656 11.42679688 23.10695313 12.22859375 23.09765625 13.0546875 C23.07406223 15.03658523 23.03819065 17.01832981 23 19 C21.68 19 20.36 19 19 19 C18.67 14.05 18.34 9.1 18 4 C17.01 4.33 16.02 4.66 15 5 C14.67 9.62 14.34 14.24 14 19 C12.68 19 11.36 19 10 19 C9.67 14.38 9.34 9.76 9 5 C7.68 4.67 6.36 4.34 5 4 C4.67 8.95 4.34 13.9 4 19 C2.68 19 1.36 19 0 19 C0 12.73 0 6.46 0 0 Z " fill="#322E2F" transform="translate(333,92)"/>
<path d="M0 0 C9.48475572 4.04268277 16.99862309 9.41213507 21.32421875 19.03515625 C22.35345628 22.02767923 22.73746504 24.8495805 23 28 C14.08179817 25.77044954 7.65350407 19.74134322 3 12 C1.04952869 7.951852 0 4.55779515 0 0 Z " fill="#F9F9F7" transform="translate(209,278)"/>
<path d="M0 0 C-1.61231606 10.15759118 -6.06519037 16.99838063 -13.96484375 23.55859375 C-16.85082429 25.60259916 -19.67218747 26.82139973 -23 28 C-23.93454796 20.71052589 -19.78866874 15.6303952 -15.875 9.875 C-12.39280394 5.8889492 -5.41526158 0 0 0 Z " fill="#F9F9F7" transform="translate(186,278)"/>
<path d="M0 0 C5 0 10 0 15 0 C16.546875 -0.0928125 16.546875 -0.0928125 18.125 -0.1875 C19.07375 -0.125625 20.0225 -0.06375 21 0 C23.52775351 3.79163027 23.22443035 6.80874031 23.125 11.1875 C23.11597656 11.93708984 23.10695312 12.68667969 23.09765625 13.45898438 C23.07412578 15.30612654 23.03825561 17.15310412 23 19 C21.68 19 20.36 19 19 19 C18.67 14.38 18.34 9.76 18 5 C17.01 4.67 16.02 4.34 15 4 C13.58365167 6.83269666 13.6536995 9.47466438 13.4375 12.625 C13.35371094 13.81351563 13.26992187 15.00203125 13.18359375 16.2265625 C13.12300781 17.14179687 13.06242188 18.05703125 13 19 C11.68 19 10.36 19 9 19 C8.67 14.05 8.34 9.1 8 4 C7.01 4.33 6.02 4.66 5 5 C4.67 9.62 4.34 14.24 4 19 C2.68 19 1.36 19 0 19 C0 12.73 0 6.46 0 0 Z " fill="#322F30" transform="translate(216,92)"/>
<path d="M0 0 C3.96545673 0.63730555 5.10063397 1.4248675 7.5 4.5625 C9.24933583 8.06117167 8.33925509 11.84202272 7.5 15.5625 C5.875 18.125 5.875 18.125 3.5 19.5625 C0 20.125 0 20.125 -3.5 19.5625 C-6.20051329 17.41593816 -7.27996278 15.81693901 -7.87890625 12.40234375 C-8.08242564 8.46982391 -7.74550892 6.04369749 -5.9375 2.5 C-3.5 0.5625 -3.5 0.5625 0 0 Z " fill="#322E2F" transform="translate(105.5,91.4375)"/>
<path d="M0 0 C2.4375 1.375 2.4375 1.375 4 4 C4.79291109 8.84738431 4.64585224 12.70829553 2.4375 17.125 C0 19 0 19 -3.5 19.5625 C-7 19 -7 19 -9.4375 17.6875 C-11.97379983 13.3250643 -11.72286969 8.91104253 -11 4 C-8.30161113 -0.64122886 -5.09940167 -0.72848595 0 0 Z " fill="#2F2B2C" transform="translate(326,92)"/>
<path d="M0 0 C2.875 2 2.875 2 5 4 C4.67 5.65 4.34 7.3 4 9 C3.01 9 2.02 9 1 9 C0.34 8.01 -0.32 7.02 -1 6 C-4.29075996 6.37904208 -4.29075996 6.37904208 -7 8 C-7.12514928 9.97619447 -7.1757276 11.95738173 -7.1875 13.9375 C-7.20167969 15.01902344 -7.21585937 16.10054687 -7.23046875 17.21484375 C-7.29048031 20.14044315 -7.29048031 20.14044315 -5 22 C-2.46048456 21.90888062 -2.46048456 21.90888062 0 21 C0.66 20.01 1.32 19.02 2 18 C3.32 18.33 4.64 18.66 6 19 C3.25 25.875 3.25 25.875 1 27 C-5.96324393 27.79906078 -5.96324393 27.79906078 -8.6015625 25.765625 C-12.50856207 21.15033896 -13.34610131 17.18293394 -13.2890625 11.35546875 C-12.81207396 7.46865673 -11.26896117 5.17654563 -9 2 C-5.48746854 -0.34168764 -4.13530644 -0.49623677 0 0 Z " fill="#353132" transform="translate(306,84)"/>
<path d="M0 0 C2.0078125 0.328125 2.0078125 0.328125 3.75390625 1.33203125 C5.7538663 4.51576827 5.31902512 7.88354923 5.1953125 11.515625 C5.18177734 12.26521484 5.16824219 13.01480469 5.15429688 13.78710938 C5.11899789 15.63442267 5.06519167 17.48136566 5.0078125 19.328125 C4.2034375 19.1425 3.3990625 18.956875 2.5703125 18.765625 C1.7246875 18.62125 0.8790625 18.476875 0.0078125 18.328125 C-0.3221875 18.658125 -0.6521875 18.988125 -0.9921875 19.328125 C-3.9296875 19.578125 -3.9296875 19.578125 -6.9921875 19.328125 C-9.14721281 16.09558704 -9.46074885 15.07661577 -8.9921875 11.328125 C-7.8671875 9.578125 -7.8671875 9.578125 -5.9921875 8.328125 C-2.8046875 7.640625 -2.8046875 7.640625 0.0078125 7.328125 C0.0078125 6.338125 0.0078125 5.348125 0.0078125 4.328125 C-1.4153125 4.8540625 -1.4153125 4.8540625 -2.8671875 5.390625 C-5.9921875 6.328125 -5.9921875 6.328125 -7.9921875 5.328125 C-6.76176005 -0.12091087 -5.63631991 0.20798228 0 0 Z " fill="#363233" transform="translate(142.9921875,91.671875)"/>
<path d="M0 0 C3.6875 0.4375 3.6875 0.4375 6.125 3.125 C7.6875 6.4375 7.6875 6.4375 7.6875 11.4375 C4.0575 11.4375 0.4275 11.4375 -3.3125 11.4375 C-2.9825 12.7575 -2.6525 14.0775 -2.3125 15.4375 C-0.6625 15.4375 0.9875 15.4375 2.6875 15.4375 C2.6875 14.7775 2.6875 14.1175 2.6875 13.4375 C4.0075 13.7675 5.3275 14.0975 6.6875 14.4375 C4.8125 18.3125 4.8125 18.3125 3.6875 19.4375 C0.375 19.8125 0.375 19.8125 -3.3125 19.4375 C-5.87323196 17.33638659 -7.07099312 15.79872061 -7.65625 12.5 C-7.86098994 7.99572126 -7.09418361 5.10932236 -4.3125 1.4375 C-3.3125 0.4375 -3.3125 0.4375 0 0 Z " fill="#343031" transform="translate(437.3125,91.5625)"/>
<path d="M0 0 C3.05661905 2.73486967 3.93974578 4.20163153 4.25 8.3125 C4.1675 9.199375 4.085 10.08625 4 11 C0.7 11 -2.6 11 -6 11 C-5.34 12.32 -4.68 13.64 -4 15 C-3.34 15 -2.68 15 -2 15 C-1.67 14.34 -1.34 13.68 -1 13 C0.32 13 1.64 13 3 13 C2.125 17.875 2.125 17.875 1 19 C-4.79588336 19.46740995 -4.79588336 19.46740995 -7 19 C-9.23719936 16.8335022 -9.93085773 15.42357428 -10.43359375 12.34375 C-10.44404618 4.73438406 -10.44404618 4.73438406 -8.375 1.3125 C-5.24102696 -0.41943247 -3.5265808 -0.6612339 0 0 Z " fill="#302C2D" transform="translate(424,92)"/>
<path d="M0 0 C3.9375 0.375 3.9375 0.375 5.9375 2.375 C6.24425232 5.27467757 6.44923371 8.09283178 6.5625 11 C6.60117188 11.80179688 6.63984375 12.60359375 6.6796875 13.4296875 C6.77403931 15.41107556 6.85686215 17.39300645 6.9375 19.375 C6.133125 19.189375 5.32875 19.00375 4.5 18.8125 C3.654375 18.668125 2.80875 18.52375 1.9375 18.375 C1.6075 18.705 1.2775 19.035 0.9375 19.375 C-2 19.5625 -2 19.5625 -5.0625 19.375 C-7.0625 17.375 -7.0625 17.375 -7.375 14.4375 C-7.0625 11.375 -7.0625 11.375 -5.9375 9.5625 C-3.39573785 7.95271731 -1.0226892 7.70390991 1.9375 7.375 C1.9375 6.385 1.9375 5.395 1.9375 4.375 C0.2875 4.375 -1.3625 4.375 -3.0625 4.375 C-3.3925 5.035 -3.7225 5.695 -4.0625 6.375 C-5.0525 5.715 -6.0425 5.055 -7.0625 4.375 C-5.28056379 0.81112758 -3.83817589 0.06965836 0 0 Z " fill="#2E2A2B" transform="translate(70.0625,91.625)"/>
<path d="M0 0 C2.475 0.495 2.475 0.495 5 1 C5.99 3.97 6.98 6.94 8 10 C8.99 6.7 9.98 3.4 11 0 C12.32 0 13.64 0 15 0 C14.02587274 6.17916544 12.45405728 12.06933984 10.5 18 C10.17962769 18.98818726 10.17962769 18.98818726 9.8527832 19.99633789 C8.87572366 22.8913988 8.18952016 24.81047984 6 27 C3.375 27.125 3.375 27.125 1 27 C1 25.68 1 24.36 1 23 C1.99 22.67 2.98 22.34 4 22 C4.57911903 15.77447038 2.82717866 10.68339671 0.875 4.79296875 C0 2 0 2 0 0 Z " fill="#332F30" transform="translate(198,92)"/>
<path d="M0 0 C3.4375 0.9375 3.4375 0.9375 4.875 2.5625 C5.92428136 6.99279906 6.00037621 10.57474706 4.25 14.8125 C2.4375 16.9375 2.4375 16.9375 -0.0625 17.875 C-2.5625 17.9375 -2.5625 17.9375 -5.5625 15.9375 C-6.53097302 13.03208095 -6.75832812 10.97112546 -6.8125 7.9375 C-6.83828125 7.07125 -6.8640625 6.205 -6.890625 5.3125 C-6.5625 2.9375 -6.5625 2.9375 -5.26953125 1.12109375 C-3.5625 -0.0625 -3.5625 -0.0625 0 0 Z " fill="#F4F4F4" transform="translate(178.5625,89.0625)"/>
<path d="M0 0 C9.1796875 -0.29296875 9.1796875 -0.29296875 12 0 C14.52775351 3.79163027 14.22443035 6.80874031 14.125 11.1875 C14.11597656 11.93708984 14.10695312 12.68667969 14.09765625 13.45898438 C14.07412578 15.30612654 14.03825561 17.15310412 14 19 C12.68 19 11.36 19 10 19 C9.67 14.38 9.34 9.76 9 5 C7.68 5 6.36 5 5 5 C4.67 9.62 4.34 14.24 4 19 C2.68 19 1.36 19 0 19 C0 12.73 0 6.46 0 0 Z " fill="#2B2829" transform="translate(117,92)"/>
<path d="M0 0 C3.625 0.25 3.625 0.25 5.5625 1.5625 C6.625 3.25 6.625 3.25 6.625 6.25 C5.305 6.25 3.985 6.25 2.625 6.25 C2.625 5.59 2.625 4.93 2.625 4.25 C1.305 4.58 -0.015 4.91 -1.375 5.25 C-1.375 8.22 -1.375 11.19 -1.375 14.25 C-0.055 14.58 1.265 14.91 2.625 15.25 C2.625 14.26 2.625 13.27 2.625 12.25 C3.945 12.25 5.265 12.25 6.625 12.25 C6.25 15.1875 6.25 15.1875 5.625 18.25 C2.57516004 19.77491998 -0.0173369 19.48562548 -3.375 19.25 C-5.99093153 17.41884793 -6.34489455 16.34031634 -7.375 13.25 C-7.74779581 8.21725663 -7.38475759 5.34327032 -4.375 1.25 C-3.375 0.25 -3.375 0.25 0 0 Z " fill="#373334" transform="translate(275.375,91.75)"/>
<path d="M0 0 C0.33 0 0.66 0 1 0 C1 2.31 1 4.62 1 7 C1.99 7 2.98 7 4 7 C4 8.32 4 9.64 4 11 C3.01 11 2.02 11 1 11 C1 14.63 1 18.26 1 22 C1.99 22 2.98 22 4 22 C4 23.32 4 24.64 4 26 C2.00045254 26.04254356 -0.00041636 26.04080783 -2 26 C-3 25 -3 25 -3.09765625 21.83984375 C-3.08025391 19.90818359 -3.08025391 19.90818359 -3.0625 17.9375 C-3.05347656 16.64714844 -3.04445313 15.35679688 -3.03515625 14.02734375 C-3.02355469 13.02832031 -3.01195313 12.02929688 -3 11 C-3.66 11 -4.32 11 -5 11 C-5 9.68 -5 8.36 -5 7 C-4.34 7 -3.68 7 -3 7 C-2.87625 6.21625 -2.7525 5.4325 -2.625 4.625 C-2 2 -2 2 0 0 Z " fill="#332F30" transform="translate(84,85)"/>
<path d="M0 0 C0.66 0 1.32 0 2 0 C2 1.98 2 3.96 2 6 C2.99 6 3.98 6 5 6 C5 7.32 5 8.64 5 10 C4.01 10 3.02 10 2 10 C2 13.63 2 17.26 2 21 C2.99 21 3.98 21 5 21 C5 22.32 5 23.64 5 25 C3.02 25 1.04 25 -1 25 C-2.44207941 22.11584117 -2.09394887 19.58278472 -2.0625 16.375 C-2.05347656 15.18648437 -2.04445313 13.99796875 -2.03515625 12.7734375 C-2.02355469 11.85820313 -2.01195312 10.94296875 -2 10 C-2.66 10 -3.32 10 -4 10 C-4 8.68 -4 7.36 -4 6 C-3.34 6 -2.68 6 -2 6 C-1.855625 5.195625 -1.71125 4.39125 -1.5625 3.5625 C-1 1 -1 1 0 0 Z " fill="#2A2627" transform="translate(397,86)"/>
<path d="M0 0 C0.66 0 1.32 0 2 0 C2 1.98 2 3.96 2 6 C2.99 6 3.98 6 5 6 C5 7.32 5 8.64 5 10 C4.01 10 3.02 10 2 10 C2 13.63 2 17.26 2 21 C2.99 21 3.98 21 5 21 C5 22.32 5 23.64 5 25 C3.02 25 1.04 25 -1 25 C-2.44207941 22.11584117 -2.09394887 19.58278472 -2.0625 16.375 C-2.05347656 15.18648437 -2.04445313 13.99796875 -2.03515625 12.7734375 C-2.02355469 11.85820313 -2.01195312 10.94296875 -2 10 C-2.66 10 -3.32 10 -4 10 C-4 8.68 -4 7.36 -4 6 C-3.34 6 -2.68 6 -2 6 C-1.855625 5.195625 -1.71125 4.39125 -1.5625 3.5625 C-1 1 -1 1 0 0 Z " fill="#292526" transform="translate(407,86)"/>
<path d="M0 0 C0.721875 0.37125 1.44375 0.7425 2.1875 1.125 C-0.03120739 3.6765135 -1.51744687 4.49231971 -4.8125 5.125 C-7.65637945 5.22016919 -10.46962841 5.26447982 -13.3125 5.25 C-14.07175781 5.25386719 -14.83101562 5.25773437 -15.61328125 5.26171875 C-19.18264456 5.25546768 -22.37981602 5.08840936 -25.8125 4.125 C-26.1425 2.805 -26.4725 1.485 -26.8125 0.125 C-25.8225 0.125 -24.8325 0.125 -23.8125 0.125 C-22.389375 0.0940625 -22.389375 0.0940625 -20.9375 0.0625 C-18.064949 0.11995102 -15.61333829 0.55046907 -12.8125 1.125 C-9.77864069 1.35253945 -8.10915246 1.25849361 -5.3125 0 C-2.8125 -0.875 -2.8125 -0.875 0 0 Z " fill="#888687" transform="translate(256.8125,414.875)"/>
<path d="M0 0 C1.32 0 2.64 0 4 0 C4 8.58 4 17.16 4 26 C2.68 26 1.36 26 0 26 C0 17.42 0 8.84 0 0 Z " fill="#363334" transform="translate(191,85)"/>
<path d="M0 0 C1.32 0 2.64 0 4 0 C4 8.58 4 17.16 4 26 C2.68 26 1.36 26 0 26 C0 17.42 0 8.84 0 0 Z " fill="#353132" transform="translate(152,85)"/>
<path d="M0 0 C1.65 0 3.3 0 5 0 C5 6.27 5 12.54 5 19 C3.35 19 1.7 19 0 19 C0 12.73 0 6.46 0 0 Z " fill="#4C494A" transform="translate(90,92)"/>
<path d="M0 0 C2.475 0.495 2.475 0.495 5 1 C5.99 1 6.98 1 8 1 C7.51917969 1.68449219 7.03835938 2.36898437 6.54296875 3.07421875 C4.74297878 6.48736428 4.50621595 8.97692423 4.3125 12.8125 C4.24675781 13.97394531 4.18101562 15.13539062 4.11328125 16.33203125 C4.07589844 17.21246094 4.03851563 18.09289062 4 19 C2.68 19 1.36 19 0 19 C0 12.73 0 6.46 0 0 Z " fill="#373334" transform="translate(333,92)"/>
<path d="M0 0 C4.55555556 0.55555556 4.55555556 0.55555556 6 2 C6.07325168 4.86267567 6.09238205 7.700719 6.0625 10.5625 C6.05798828 11.36880859 6.05347656 12.17511719 6.04882812 13.00585938 C6.03700518 15.00393756 6.01906914 17.00197783 6 19 C4.68 19 3.36 19 2 19 C1.96261719 17.94039062 1.92523438 16.88078125 1.88671875 15.7890625 C1.82106742 14.40100576 1.75461979 13.01298651 1.6875 11.625 C1.66494141 10.92632812 1.64238281 10.22765625 1.61914062 9.5078125 C1.53015704 7.22711059 1.53015704 7.22711059 1 4 C0.01 3.34 -0.98 2.68 -2 2 C-1.34 1.34 -0.68 0.68 0 0 Z " fill="#272324" transform="translate(350,92)"/>
<path d="M0 0 C2.97 0.495 2.97 0.495 6 1 C5.84660156 1.51046875 5.69320313 2.0209375 5.53515625 2.546875 C4.83094597 5.7749338 4.65111796 8.95418001 4.4375 12.25 C4.35371094 13.51328125 4.26992188 14.7765625 4.18359375 16.078125 C4.12300781 17.04234375 4.06242187 18.0065625 4 19 C2.68 19 1.36 19 0 19 C0 12.73 0 6.46 0 0 Z " fill="#2C2829" transform="translate(360,92)"/>
<path d="M0 0 C2.97 0.495 2.97 0.495 6 1 C5.84660156 1.51046875 5.69320312 2.0209375 5.53515625 2.546875 C4.83094597 5.7749338 4.65111796 8.95418001 4.4375 12.25 C4.35371094 13.51328125 4.26992187 14.7765625 4.18359375 16.078125 C4.12300781 17.04234375 4.06242188 18.0065625 4 19 C2.68 19 1.36 19 0 19 C0 12.73 0 6.46 0 0 Z " fill="#282425" transform="translate(216,92)"/>
<path d="M0 0 C1.32 0 2.64 0 4 0 C4 6.27 4 12.54 4 19 C2.68 19 1.36 19 0 19 C0 12.73 0 6.46 0 0 Z " fill="#393536" transform="translate(387,92)"/>
<path d="M0 0 C1.32 0 2.64 0 4 0 C4 6.27 4 12.54 4 19 C2.68 19 1.36 19 0 19 C0 12.73 0 6.46 0 0 Z " fill="#292526" transform="translate(261,92)"/>
<path d="M0 0 C3.96 0 7.92 0 12 0 C10.31482096 4.2129476 8.56523798 7.32315889 6 11 C0 3.28571429 0 3.28571429 0 0 Z " fill="#E4E3E3" transform="translate(251,199)"/>
<path d="M0 0 C2.97246802 2.54782974 4.41535288 5.45340883 6 9 C6 9.66 6 10.32 6 11 C2.37 11 -1.26 11 -5 11 C-3.77472971 6.94718288 -2.30119506 3.55639236 0 0 Z " fill="#EAEAEA" transform="translate(243,200)"/>
<path d="M0 0 C1.65 0 3.3 0 5 0 C6.49297212 2.98594424 6.11755228 5.70853624 6 9 C5.67 9.66 5.34 10.32 5 11 C3.35 11 1.7 11 0 11 C-1.49297212 8.01405576 -1.11755228 5.29146376 -1 2 C-0.67 1.34 -0.34 0.68 0 0 Z " fill="#F6F6F6" transform="translate(320,96)"/>
<path d="M0 0 C2.625 0.375 2.625 0.375 5 1 C5 3.97 5 6.94 5 10 C2.625 10.625 2.625 10.625 0 11 C-2 9 -2 9 -2.25 5.5 C-2 2 -2 2 0 0 Z " fill="#F6F6F6" transform="translate(104,96)"/>
<path d="M0 0 C2.85442578 3.80590105 4.25372947 6.67590154 6 11 C2.04 11 -1.92 11 -6 11 C-4.02 7.37 -2.04 3.74 0 0 Z " fill="#F2F2F2" transform="translate(269,199)"/>
<path d="M0 0 C3.63 0 7.26 0 11 0 C9.47903372 3.80241571 7.85989732 7.36474615 6 11 C3.37997275 8.62949916 1.64180091 6.12723983 0 3 C0 2.01 0 1.02 0 0 Z " fill="#F0F0F0" transform="translate(226,199)"/>
<path d="M0 0 C-0.99 3.3 -1.98 6.6 -3 10 C-3.99 10 -4.98 10 -6 10 C-7.38671875 8.5390625 -7.38671875 8.5390625 -8.6875 6.625 C-9.34298828 5.68527344 -9.34298828 5.68527344 -10.01171875 4.7265625 C-11 3 -11 3 -11 1 C-7.18939869 0.29105092 -3.91978817 0 0 0 Z " fill="#F0F0F0" transform="translate(287,197)"/>
<path d="M0 0 C2.94678433 2.94678433 4.32041919 5.24093818 6 9 C6 9.66 6 10.32 6 11 C2.37 11 -1.26 11 -5 11 C-3.35 7.37 -1.7 3.74 0 0 Z " fill="#F3F3F3" transform="translate(217,199)"/>
<path d="M0 0 C3.96 0.33 7.92 0.66 12 1 C7.5078125 8.8125 7.5078125 8.8125 6 11 C5.34 11 4.68 11 4 11 C2.68 7.37 1.36 3.74 0 0 Z " fill="#F2F2F2" transform="translate(200,197)"/>
<path d="M0 0 C1.67542976 0.28604898 3.34385343 0.61781233 5 1 C5 3.97 5 6.94 5 10 C3.34385343 10.38218767 1.67542976 10.71395102 0 11 C-1 10 -1 10 -1.1328125 7.96875 C-1.13023437 7.1540625 -1.12765625 6.339375 -1.125 5.5 C-1.12757813 4.6853125 -1.13015625 3.870625 -1.1328125 3.03125 C-1 1 -1 1 0 0 Z " fill="#F8F8F8" transform="translate(248,96)"/>
<path d="M0 0 C1.32 0 2.64 0 4 0 C3.814375 0.7425 3.62875 1.485 3.4375 2.25 C3.00796892 4.94990963 3.14877026 6.44631077 4 9 C3.01 9.66 2.02 10.32 1 11 C-0.98362069 8.08291076 -0.9876191 6.87619096 -0.625 3.25 C-0.41875 2.1775 -0.2125 1.105 0 0 Z " fill="#626060" transform="translate(238,394)"/>
<path d="M0 0 C3 0 6 0 9 0 C9.66 1.32 10.32 2.64 11 4 C7.33694766 4.74926071 4.57644848 5.2380014 1 4 C0.67 2.68 0.34 1.36 0 0 Z " fill="#999798" transform="translate(230,415)"/>
<path d="M0 0 C3.375 0.3125 3.375 0.3125 7 1 C7.66 1.99 8.32 2.98 9 4 C5.04 4 1.08 4 -3 4 C-2.01 3.67 -1.02 3.34 0 3 C0 2.01 0 1.02 0 0 Z " fill="#6D6A6B" transform="translate(241,416)"/>
<path d="M0 0 C-0.33 1.65 -0.66 3.3 -1 5 C-2.32 5.33 -3.64 5.66 -5 6 C-5.33 4.68 -5.66 3.36 -6 2 C-3 0 -3 0 0 0 Z " fill="#D9D8D8" transform="translate(144,102)"/>
<path d="M0 0 C-0.33 1.65 -0.66 3.3 -1 5 C-2.32 5.33 -3.64 5.66 -5 6 C-5.33 4.68 -5.66 3.36 -6 2 C-3 0 -3 0 0 0 Z " fill="#DCDBDC" transform="translate(73,102)"/>
<path d="M0 0 C1.65 0 3.3 0 5 0 C5.33 1.32 5.66 2.64 6 4 C3.69 4 1.38 4 -1 4 C-0.67 2.68 -0.34 1.36 0 0 Z " fill="#DBDADB" transform="translate(435,96)"/>
<path d="M0 0 C1.32 0.66 2.64 1.32 4 2 C4 2.99 4 3.98 4 5 C2.02 5 0.04 5 -2 5 C-1.125 1.125 -1.125 1.125 0 0 Z " fill="#E2E2E2" transform="translate(420,95)"/>
<path d="M0 0 C0.99 0.33 1.98 0.66 3 1 C3 3.31 3 5.62 3 8 C2.01 8.33 1.02 8.66 0 9 C0.185625 8.443125 0.37125 7.88625 0.5625 7.3125 C1.07551165 4.600867 0.6640724 2.65628961 0 0 Z " fill="#F3F2F3" transform="translate(245,394)"/>
<path d="M0 0 C0.84181413 3.15680299 1 5.72572803 1 9 C0.01 8.67 -0.98 8.34 -2 8 C-2 5.69 -2 3.38 -2 1 C-1.34 0.67 -0.68 0.34 0 0 Z " fill="#F4F3F3" transform="translate(241,394)"/>
<path d="M0 0 C1.9375 0.3125 1.9375 0.3125 4 1 C4.33 1.99 4.66 2.98 5 4 C3.68 4.33 2.36 4.66 1 5 C0.67 3.35 0.34 1.7 0 0 Z " fill="#898787" transform="translate(236,415)"/>
</svg>
